<svg width="46" height="45" viewBox="0 0 46 45" fill="none" xmlns="http://www.w3.org/2000/svg">
<g filter="url(#filter0_d_203_239)">
<g clip-path="url(#clip0_203_239)">
<path fill-rule="evenodd" clip-rule="evenodd" d="M23 0C12.5073 0 4 8.28338 4 18.5C4 28.7166 12.5073 37 23 37C33.4928 37 42 28.7166 42 18.5C42 8.28338 33.4928 0 23 0ZM31.8065 12.5815C31.5215 15.5061 30.2833 22.6055 29.6547 25.8815C29.3887 27.269 28.8631 27.733 28.3564 27.7777C27.2528 27.8764 26.4153 27.067 25.3465 26.3856C23.6745 25.3188 22.7293 24.6543 21.1063 23.6122C19.2301 22.4081 20.4461 21.7467 21.5148 20.666C21.7951 20.3824 26.6559 16.0765 26.7509 15.6865C26.762 15.6371 26.7747 15.4552 26.6623 15.3596C26.5498 15.264 26.3867 15.2964 26.2696 15.3226C26.1017 15.3596 23.4307 17.0786 18.2548 20.4795C17.4963 20.9867 16.8092 21.2334 16.1933 21.221C15.5156 21.2072 14.2109 20.848 13.2403 20.5396C12.0513 20.1635 11.1044 19.963 11.1868 19.3248C11.2295 18.9918 11.6998 18.6511 12.5991 18.3027C18.1376 15.9532 21.8315 14.4038 23.6793 13.6545C28.9565 11.5178 30.0522 11.1462 30.7678 11.1339C31.664 11.1216 31.8793 11.8415 31.8065 12.5815Z" fill="white"/>
</g>
</g>
<defs>
<filter id="filter0_d_203_239" x="0" y="0" width="46" height="45" filterUnits="userSpaceOnUse" color-interpolation-filters="sRGB">
<feFlood flood-opacity="0" result="BackgroundImageFix"/>
<feColorMatrix in="SourceAlpha" type="matrix" values="0 0 0 0 0 0 0 0 0 0 0 0 0 0 0 0 0 0 127 0" result="hardAlpha"/>
<feOffset dy="4"/>
<feGaussianBlur stdDeviation="2"/>
<feComposite in2="hardAlpha" operator="out"/>
<feColorMatrix type="matrix" values="0 0 0 0 0 0 0 0 0 0 0 0 0 0 0 0 0 0 0.25 0"/>
<feBlend mode="normal" in2="BackgroundImageFix" result="effect1_dropShadow_203_239"/>
<feBlend mode="normal" in="SourceGraphic" in2="effect1_dropShadow_203_239" result="shape"/>
</filter>
<clipPath id="clip0_203_239">
<path d="M4 19C4 8.50659 12.5066 0 23 0V0C33.4934 0 42 8.50659 42 19V37H4V19Z" fill="white"/>
</clipPath>
</defs>
</svg>
