<svg width="38" height="37" viewBox="0 0 38 37" fill="none" xmlns="http://www.w3.org/2000/svg">
<g clip-path="url(#clip0_203_242)">
<path fill-rule="evenodd" clip-rule="evenodd" d="M32.3993 5.37733C28.8432 1.91167 24.1153 0.00154167 19.0788 0C8.70001 0 0.252927 8.22325 0.248177 18.3335C0.246594 21.5648 1.11426 24.7191 2.76251 27.5002L0.0898438 37L10.0712 34.4501C12.8214 35.9116 15.9184 36.6809 19.0693 36.6824H19.0772C29.4543 36.6824 37.903 28.4576 37.9078 18.3474C37.9109 13.4495 35.9539 8.84146 32.3993 5.37733ZM19.0788 33.5852H19.0724C16.2636 33.5852 13.5102 32.8498 11.1067 31.4608L10.5351 31.1309L4.61184 32.6432L6.19359 27.0192L5.82151 26.4427C4.25401 24.0161 3.42751 21.2118 3.42909 18.3335C3.43226 9.93142 10.4543 3.09567 19.0867 3.09567C23.2667 3.09567 27.1965 4.68358 30.151 7.56342C33.1055 10.4448 34.7316 14.2727 34.73 18.3443C34.7253 26.7495 27.7048 33.5852 19.0788 33.5852ZM27.6636 22.1722C27.1933 21.9425 24.8801 20.8341 24.4478 20.6815C24.0172 20.5288 23.7037 20.4517 23.3886 20.9096C23.0735 21.3675 22.1742 22.4004 21.8987 22.7072C21.6248 23.0125 21.3493 23.051 20.879 22.8213C20.4088 22.5916 18.8919 22.109 17.0948 20.5473C15.6968 19.3325 14.7515 17.8325 14.4776 17.373C14.2037 16.9136 14.4491 16.667 14.6834 16.4388C14.8956 16.2337 15.1537 15.9038 15.3896 15.6356C15.6271 15.3704 15.7047 15.1792 15.863 14.8725C16.0198 14.5672 15.9422 14.299 15.8234 14.0693C15.7047 13.8411 14.7642 11.5856 14.3731 10.6683C13.9915 9.77417 13.6036 9.89596 13.3138 9.88208C13.0399 9.86821 12.7264 9.86667 12.4113 9.86667C12.0978 9.86667 11.588 9.98075 11.1573 10.4402C10.7267 10.8996 9.51068 12.008 9.51068 14.262C9.51068 16.5174 11.1969 18.6958 11.4313 19.001C11.6656 19.3063 14.7483 23.9344 19.4683 25.9185C20.5908 26.3902 21.468 26.6724 22.1504 26.8836C23.2778 27.232 24.3038 27.1827 25.1144 27.0655C26.0185 26.9345 27.8979 25.957 28.2906 24.8871C28.6833 23.8172 28.6833 22.8984 28.5645 22.7087C28.4473 22.516 28.1338 22.402 27.6636 22.1722Z" fill="white"/>
</g>
<defs>
<clipPath id="clip0_203_242">
<path d="M0 19C0 8.50659 8.50659 0 19 0C29.4934 0 38 8.50659 38 19V37H0V19Z" fill="white"/>
</clipPath>
</defs>
</svg>
