<svg width="235" height="67" viewBox="0 0 235 67" fill="none" xmlns="http://www.w3.org/2000/svg">
<path d="M24.2545 46.3443H16.9187L19.9587 32.0188L12.1272 46.3443H7.63322L6.14623 31.5214L2.97398 46.3443H0L4.46098 25.2871H12.8873L13.9116 37.1587L20.2561 25.2871H28.7485L24.2545 46.3443Z" fill="white"/>
<path d="M27.2202 46.3443L31.6812 25.2871H40.5701C41.9359 25.2871 43.1255 25.4308 44.1389 25.7182C45.1743 25.9835 46.0224 26.4367 46.6833 27.0778C47.3662 27.7189 47.8729 28.559 48.2033 29.598C48.5558 30.6371 48.732 31.9082 48.732 33.4115C48.732 35.0253 48.5227 36.606 48.1042 38.1535C47.7077 39.701 47.0358 41.0827 46.0885 42.2986C45.1412 43.5145 43.8965 44.4983 42.3545 45.2499C40.8344 45.9795 38.9509 46.3443 36.7039 46.3443H27.2202ZM36.2743 44.023C37.0013 44.023 37.6402 43.7245 38.1909 43.1277C38.7637 42.5086 39.2483 41.7349 39.6449 40.8064C40.0634 39.8558 40.4049 38.8167 40.6692 37.6893C40.9556 36.5397 41.1759 35.4343 41.3301 34.3732C41.5063 33.312 41.6275 32.3614 41.6936 31.5214C41.7817 30.6813 41.8258 30.0844 41.8258 29.7307C41.8258 29.0453 41.6826 28.5148 41.3962 28.1389C41.1318 27.741 40.6582 27.542 39.9753 27.542H38.3892L34.8534 44.023H36.2743Z" fill="white"/>
<path d="M66.4543 46.3443H58.722L58.2594 41.0717H52.1462L49.8 46.3443H46.5947L56.3428 25.2871H64.1743L66.4543 46.3443ZM53.2366 38.6509H58.028L57.268 29.6312L53.2366 38.6509Z" fill="white"/>
<path d="M104.982 31.5449C105.049 31.2225 105.083 30.7818 105.083 30.2228C105.083 29.9004 105.06 29.5886 105.016 29.2877C104.971 28.9652 104.892 28.6857 104.78 28.4492C104.668 28.1913 104.5 27.9978 104.276 27.8688C104.051 27.7183 103.76 27.6431 103.401 27.6431C102.998 27.6431 102.628 27.7291 102.291 27.9011C101.955 28.073 101.652 28.2988 101.383 28.5782C101.137 28.8362 100.935 29.1479 100.778 29.5134C100.644 29.8574 100.576 30.2228 100.576 30.6098C100.576 31.1687 100.722 31.5987 101.014 31.8997C101.327 32.2006 101.731 32.4478 102.224 32.6413C102.717 32.8348 103.278 32.996 103.906 33.125C104.534 33.254 105.184 33.4045 105.856 33.5765C106.417 33.727 106.977 33.9204 107.538 34.1569C108.098 34.3934 108.592 34.7159 109.018 35.1243C109.466 35.5113 109.825 36.0272 110.094 36.6722C110.363 37.2956 110.497 38.0803 110.497 39.0262C110.497 40.3806 110.217 41.5199 109.657 42.4443C109.096 43.3688 108.323 44.1212 107.336 44.7016C106.35 45.2821 105.172 45.7013 103.805 45.9592C102.46 46.2172 100.991 46.3462 99.3993 46.3462C97.785 46.3462 96.4622 46.2495 95.4309 46.056C94.4219 45.841 93.626 45.6153 93.0431 45.3788C92.3481 45.0993 91.8324 44.7769 91.4961 44.4114L92.6395 39.9936H98.5585C98.5361 40.1871 98.5137 40.4558 98.4912 40.7998C98.4688 41.1222 98.4576 41.3802 98.4576 41.5737C98.4576 41.8317 98.4912 42.1004 98.5585 42.3799C98.6258 42.6593 98.7266 42.9173 98.8612 43.1538C99.0181 43.3903 99.2311 43.5837 99.5001 43.7342C99.7692 43.8847 100.105 43.9599 100.509 43.9599C100.957 43.9599 101.35 43.8632 101.686 43.6697C102.045 43.4762 102.336 43.2398 102.561 42.9603C102.807 42.6593 102.987 42.3369 103.099 41.9929C103.233 41.6274 103.3 41.2727 103.3 40.9287C103.3 40.4558 103.177 40.0581 102.93 39.7356C102.706 39.4131 102.392 39.1444 101.989 38.9294C101.585 38.693 101.114 38.4995 100.576 38.349C100.061 38.177 99.5226 38.005 98.9621 37.8331C98.424 37.6826 97.8523 37.4998 97.2469 37.2849C96.664 37.0699 96.1259 36.7689 95.6326 36.382C95.1394 35.995 94.7246 35.5113 94.3883 34.9308C94.0744 34.3289 93.9175 33.5657 93.9175 32.6413C93.9175 31.2655 94.2762 30.1153 94.9937 29.1909C95.7335 28.245 96.6528 27.4818 97.7514 26.9014C98.8724 26.321 100.094 25.9125 101.417 25.676C102.74 25.418 103.995 25.2891 105.184 25.2891C106.753 25.2891 108.098 25.4718 109.219 25.8373C110.363 26.1812 111.226 26.5897 111.809 27.0626L110.565 31.5449H104.982Z" fill="white"/>
<path d="M129.462 46.0882H122.198L124.216 36.9624H120.079L118.061 46.0882H110.797L115.337 25.6115H122.635L120.651 34.5116H124.754L126.738 25.6115H134.069L129.462 46.0882Z" fill="white"/>
<path d="M139.787 46.0882H132.523L137.063 25.6115H144.361L139.787 46.0882Z" fill="white"/>
<path d="M153.615 37.2526C154.288 37.2526 154.848 36.9839 155.297 36.4464C155.767 35.909 156.148 35.2533 156.44 34.4794C156.754 33.7055 156.978 32.8993 157.113 32.0609C157.247 31.2225 157.314 30.4915 157.314 29.8681C157.314 29.2877 157.213 28.804 157.012 28.417C156.81 28.0085 156.373 27.8043 155.7 27.8043H154.187L152.068 37.2526H153.615ZM151.597 39.3164L150.084 46.0882H142.82L147.36 25.6115H155.128C156.406 25.6115 157.572 25.676 158.626 25.805C159.68 25.934 160.588 26.192 161.35 26.5789C162.112 26.9659 162.706 27.5248 163.132 28.2558C163.558 28.9652 163.771 29.9218 163.771 31.1257C163.771 32.2436 163.581 33.3078 163.2 34.3182C162.841 35.3071 162.247 36.1777 161.417 36.9301C160.61 37.6611 159.556 38.2415 158.256 38.6715C156.956 39.1014 155.375 39.3164 153.514 39.3164H151.597Z" fill="white"/>
<path d="M173.108 37.2526C173.78 37.2526 174.341 36.9839 174.789 36.4464C175.26 35.909 175.641 35.2533 175.932 34.4794C176.246 33.7055 176.471 32.8993 176.605 32.0609C176.74 31.2225 176.807 30.4915 176.807 29.8681C176.807 29.2877 176.706 28.804 176.504 28.417C176.302 28.0085 175.865 27.8043 175.193 27.8043H173.679L171.561 37.2526H173.108ZM171.09 39.3164L169.576 46.0882H162.312L166.852 25.6115H174.621C175.899 25.6115 177.065 25.676 178.118 25.805C179.172 25.934 180.08 26.192 180.843 26.5789C181.605 26.9659 182.199 27.5248 182.625 28.2558C183.051 28.9652 183.264 29.9218 183.264 31.1257C183.264 32.2436 183.073 33.3078 182.692 34.3182C182.333 35.3071 181.739 36.1777 180.91 36.9301C180.103 37.6611 179.049 38.2415 177.749 38.6715C176.448 39.1014 174.868 39.3164 173.007 39.3164H171.09Z" fill="white"/>
<path d="M189.069 46.0882H181.805L186.345 25.6115H193.643L189.069 46.0882Z" fill="white"/>
<path d="M210.026 46.0882H202.157L198.424 31.287L195.128 46.0882H192.101L196.641 25.6115H204.679L208.21 40.6063L211.54 25.6115H214.634L210.026 46.0882Z" fill="white"/>
<path d="M225.011 36.7367H233.721L231.77 46.0882H227.802L227.163 44.0244H227.028C226.446 44.6694 225.751 45.2176 224.943 45.669C224.159 46.1205 223.127 46.3462 221.849 46.3462C220.863 46.3462 219.91 46.1957 218.991 45.8948C218.094 45.5723 217.287 45.0778 216.569 44.4114C215.874 43.7235 215.314 42.8313 214.888 41.7349C214.462 40.6385 214.249 39.3164 214.249 37.7686C214.249 36.0917 214.518 34.5009 215.056 32.996C215.594 31.4912 216.401 30.1691 217.477 29.0297C218.554 27.8688 219.899 26.9551 221.513 26.2887C223.127 25.6223 225.011 25.2891 227.163 25.2891C228.822 25.2891 230.268 25.4718 231.501 25.8373C232.734 26.2027 233.9 26.6112 234.999 27.0626L233.721 33.3185H228.037C228.06 33.082 228.093 32.8026 228.138 32.4801C228.183 32.1576 228.217 31.8244 228.239 31.4804C228.262 31.115 228.284 30.7603 228.306 30.4163C228.329 30.0723 228.34 29.7714 228.34 29.5134C228.34 29.3414 228.329 29.1479 228.306 28.9329C228.284 28.6965 228.228 28.4707 228.138 28.2558C228.049 28.0408 227.914 27.8688 227.735 27.7398C227.555 27.5893 227.298 27.5141 226.961 27.5141C226.378 27.5141 225.84 27.7506 225.347 28.2235C224.876 28.675 224.45 29.2877 224.069 30.0616C223.688 30.814 223.352 31.6739 223.06 32.6413C222.791 33.6087 222.556 34.5976 222.354 35.608C222.174 36.5969 222.029 37.5751 221.917 38.5425C221.827 39.4884 221.782 40.3161 221.782 41.0255C221.782 41.2405 221.793 41.5092 221.816 41.8317C221.838 42.1541 221.905 42.4766 222.018 42.7991C222.152 43.1 222.331 43.3688 222.556 43.6052C222.802 43.8202 223.15 43.9277 223.598 43.9277C224.338 43.9277 225.055 43.5407 225.751 42.7668C226.446 41.9929 226.972 40.703 227.331 38.8972H224.506L225.011 36.7367Z" fill="white"/>
<path d="M79.8806 35.5032C80.0772 50.0348 68.1656 56.813 62.431 58.3857C70.5414 56.1615 82.8298 48.7137 82.8298 35.5032C82.8298 30.0775 81.8467 22.4214 72.9991 15.6875C65.483 9.96706 54.901 8.78647 49.534 8.61443C49.4495 8.61172 49.3702 8.64063 49.3072 8.6947L40.4974 16.2607C40.3932 16.3502 40.4883 16.5149 40.6233 16.4789C46.3064 14.9654 51.5576 14.7514 57.2699 14.9798C63.1683 15.2157 79.6572 18.9901 79.8806 35.5032Z" fill="white"/>
<path d="M83.6969 36.197C83.4464 55.7585 98.6236 64.8829 105.93 67C95.5965 64.0059 79.9391 53.9802 79.9391 36.197C79.9391 28.8932 81.1917 18.587 92.4651 9.52217C102.05 1.81511 115.548 0.229691 122.381 0.000206932C122.477 -0.0030304 122.567 0.0318269 122.639 0.0970414L133.81 10.2323C133.959 10.3676 133.823 10.617 133.63 10.563C126.422 8.54777 119.756 8.2632 112.507 8.5695C104.991 8.88705 83.9816 13.968 83.6969 36.197Z" fill="#3579F4"/>
</svg>
